# Blender v2.91.0 OBJ File: ''
# www.blender.org
v -0.105589 -0.277548 -0.391932
v -0.067827 -0.281431 -0.340390
v -0.132380 -0.208811 -0.342725
v 0.067827 -0.281431 -0.340390
v 0.105589 -0.277548 -0.391932
v 0.132380 -0.208811 -0.342725
v -0.026348 -0.239136 -0.346205
v 0.026348 -0.239136 -0.346205
v 0.101427 -0.207629 -0.399070
v -0.101427 -0.207629 -0.399070
v 0.070014 -0.274305 -0.333830
v 0.065454 -0.181130 -0.221932
v 0.024106 -0.278968 -0.274554
v -0.080046 -0.279021 -0.405357
v 0.000000 -0.261561 -0.401977
v -0.049440 -0.269226 -0.381640
v 0.080046 -0.279021 -0.405357
v 0.061132 -0.274370 -0.493333
v -0.203605 -0.236790 -0.406925
v -0.138221 -0.254680 -0.361767
v 0.203605 -0.236790 -0.406925
v 0.196694 -0.200599 -0.321600
v 0.138221 -0.254680 -0.361767
v -0.196694 -0.200599 -0.321600
v -0.071564 -0.276315 -0.335357
v -0.038345 -0.268049 -0.262252
v 0.000000 -0.253434 -0.088888
v -0.097799 -0.199157 -0.060818
v 0.028666 -0.270529 -0.233913
v 0.097879 -0.202082 -0.061387
v 0.000000 -0.278834 -0.257726
v 0.000000 -0.264995 -0.269588
v 0.000000 -0.266972 -0.255749
v -0.180933 -0.167697 -0.414145
v -0.061132 -0.274370 -0.493333
v -0.044065 -0.151864 -0.192894
v 0.160379 0.026705 -0.290658
v 0.000000 0.098709 -0.243000
v 0.172340 -0.048168 -0.281385
v -0.172340 -0.048168 -0.281385
v -0.222546 -0.009694 -0.389292
v 0.228675 -0.008107 -0.409740
v 0.000000 0.154266 -0.425503
v -0.087966 -0.125146 -0.549497
v -0.182587 0.017237 -0.480799
v 0.100480 -0.023960 -0.565426
v 0.180933 -0.167697 -0.414145
v -0.160379 0.026705 -0.290658
v -0.211252 0.001476 -0.313935
v -0.278546 0.019235 -0.416567
v 0.211252 0.001476 -0.313935
v -0.301750 0.041741 -0.315454
v -0.313675 0.041938 -0.401693
v 0.301750 0.041741 -0.315454
v 0.278546 0.019235 -0.416567
v 0.313675 0.041938 -0.401693
v 0.049440 -0.269226 -0.381640
vt 0.892756 0.614534
vt 0.857930 0.621256
vt 0.872791 0.530002
vt 0.856790 0.789371
vt 0.891284 0.797632
vt 0.867586 0.881194
vt 0.820148 0.678020
vt 0.821565 0.730986
vt 0.959331 0.805748
vt 0.961096 0.609446
vt 0.450203 0.268934
vt 0.404365 0.111912
vt 0.499235 0.192754
vt 0.607494 0.325744
vt 0.522987 0.394183
vt 0.578937 0.310216
vt 0.433489 0.328791
vt 0.426877 0.396927
vt 0.697918 0.313719
vt 0.644292 0.286364
vt 0.340533 0.320184
vt 0.329606 0.253619
vt 0.394714 0.289933
vt 0.706158 0.249587
vt 0.590336 0.268218
vt 0.551957 0.177326
vt 0.519406 0.075820
vt 0.554214 0.057520
vt 0.498332 0.166146
vt 0.484035 0.057798
vt 0.519132 0.185382
vt 0.519841 0.200843
vt 0.517577 0.190607
vt 0.761461 0.316752
vt 0.616854 0.392674
vt 0.391712 0.020395
vt 0.188695 0.140323
vt 0.148899 0.029325
vt 0.244590 0.163315
vt 0.786307 0.164535
vt 0.830182 0.209381
vt 0.183903 0.216232
vt 0.033476 0.160709
vt 0.887453 0.343481
vt 0.874212 0.241824
vt 0.999856 0.254640
vt 0.981242 0.170124
vt 0.258699 0.325158
vt 0.092202 0.302027
vt 0.774934 0.313884
vt 0.828202 0.453947
vt 0.087074 0.412341
vt 0.763104 0.431376
vt 0.279233 0.458048
vt 0.215430 0.477965
vt 0.646382 0.069241
vt 0.844162 0.143417
vt 0.402311 0.849094
vt 0.438040 0.735610
vt 0.534672 0.861466
vt 0.353108 0.847951
vt 0.320191 0.733036
vt 0.363070 0.646683
vt 0.545024 0.737699
vt 0.590960 0.787400
vt 0.397196 0.648466
vt 0.487205 0.611647
vt 0.274087 0.608281
vt 0.212927 0.732262
vt 0.044268 0.710074
vt 0.084537 0.551771
vt 0.165465 0.780706
vt 0.649822 0.581235
vt 0.461852 0.312096
vt 0.273196 0.326526
vt 0.470636 0.000144
vt 0.883305 0.043383
vt 0.219754 0.856746
vt 0.716198 0.720783
vn -0.6745 -0.5851 0.4501
vn 0.6745 -0.5851 0.4501
vn 0.0561 0.0818 0.9951
vn -0.0561 0.0818 0.9951
vn 0.5915 -0.6464 -0.4820
vn -0.5915 -0.6464 -0.4820
vn -0.5384 -0.1172 -0.8345
vn -0.8765 0.0030 -0.4814
vn 0.6814 -0.5486 0.4846
vn 0.2057 -0.9693 0.1348
vn -0.2133 -0.9770 -0.0058
vn -0.3230 -0.9416 0.0947
vn 0.3198 -0.9401 -0.1185
vn 0.4769 -0.7946 0.3757
vn -0.4298 -0.7898 0.4377
vn 0.0130 -0.9942 0.1065
vn 0.0156 -0.9894 -0.1441
vn -0.4399 -0.8815 0.1716
vn 0.4147 -0.8905 0.1869
vn 1.0000 0.0000 0.0000
vn -0.4708 -0.5742 -0.6698
vn 0.1291 -0.9517 0.2786
vn -0.5148 -0.7261 -0.4558
vn -0.5026 0.0749 -0.8613
vn -0.9504 0.3063 -0.0530
vn 0.2747 0.9590 0.0697
vn 0.3501 0.1700 0.9212
vn 0.2883 0.1388 0.9474
vn -0.9020 0.0305 0.4306
vn 0.9108 0.0370 0.4113
vn 0.4586 0.8501 0.2588
vn -0.2348 0.2914 -0.9273
vn -0.5955 0.8030 -0.0237
vn -0.7695 -0.2226 -0.5985
vn 0.7649 -0.2120 -0.6082
vn -0.3717 -0.7815 -0.5010
vn 0.2719 -0.6208 -0.7353
vn 0.2716 -0.6214 -0.7349
vn 0.4419 0.7990 -0.4078
vn -0.4419 0.7990 -0.4078
vn 0.9284 -0.2707 -0.2544
vn -0.8852 -0.1647 -0.4350
vn -0.6211 -0.1056 0.7766
vn 0.5896 -0.1166 0.7992
vn -0.5843 0.8085 0.0699
vn -0.5252 -0.8269 0.2013
vn 0.8308 -0.5182 0.2029
vn -0.5204 -0.8511 0.0700
vn -0.1558 0.1459 0.9769
vn 0.1558 0.1459 0.9769
vn -0.4910 0.8581 -0.1501
vn 0.4987 0.8642 -0.0670
vn -0.1610 0.9186 -0.3609
vn 0.5384 -0.1172 -0.8345
vn 0.8765 0.0030 -0.4814
vn 0.9106 -0.3441 -0.2288
vn -0.4679 -0.8290 0.3064
vn 0.3552 -0.7112 0.6067
vn 0.2133 -0.9770 -0.0058
vn -0.2057 -0.9693 0.1348
vn -0.3198 -0.9401 -0.1185
vn 0.3230 -0.9416 0.0947
vn -0.4769 -0.7946 0.3757
vn 0.4138 -0.7871 0.4574
vn 0.0533 -0.9702 -0.2362
vn -0.1339 -0.9899 -0.0475
vn -0.0795 -0.9917 0.1012
vn -0.0930 -0.6480 -0.7560
vn 0.2229 0.9236 0.3120
vn -0.1269 -0.9683 0.2153
vn 0.9257 -0.3775 -0.0255
vn 0.5026 0.0749 -0.8613
vn 0.9504 0.3063 -0.0530
vn 0.0150 0.9394 0.3425
vn -0.0044 -0.4656 0.8850
vn -0.9334 0.1489 -0.3264
vn -0.3501 0.1700 0.9212
vn -0.4067 0.2474 0.8794
vn 0.3336 0.1481 0.9310
vn -0.4586 0.8501 0.2588
vn -0.1648 0.5499 -0.8188
vn 0.5237 0.6888 -0.5013
vn 0.2722 -0.6201 -0.7358
vn -0.9480 -0.2124 -0.2370
vn -0.4779 -0.4675 0.7437
vn 0.5725 0.8150 0.0901
vn -0.2878 -0.6726 -0.6817
vn 0.2878 -0.6726 -0.6817
vn -0.8307 -0.5190 0.2014
vn 0.4916 -0.8531 0.1747
vn -0.4056 -0.9075 0.1089
vn 0.4056 -0.9075 0.1089
vn 0.5204 -0.8511 0.0700
vn 0.5018 0.8563 -0.1220
vn 0.1702 0.8848 -0.4338
vn -0.5015 0.8626 -0.0674
s 1
f 1/1/1 2/2/1 3/3/1
f 4/4/2 5/5/2 6/6/2
f 2/2/3 7/7/3 3/3/3
f 8/8/4 4/4/4 6/6/4
f 2/2/5 1/1/5 7/7/5
f 5/5/6 4/4/6 8/8/6
f 5/5/7 8/8/7 9/9/7
f 3/3/8 10/10/8 1/1/8
f 11/11/9 12/12/9 13/13/9
f 14/14/10 15/15/10 16/16/10
f 17/17/11 15/15/11 18/18/11
f 19/19/12 14/14/12 20/20/12
f 21/21/13 17/17/13 18/18/13
f 22/22/14 23/23/14 21/21/14
f 24/24/15 20/20/15 25/25/15
f 25/25/16 11/11/16 26/26/16
f 16/16/17 11/11/17 25/25/17
f 26/26/18 27/27/18 28/28/18
f 27/27/19 29/29/19 30/30/19
f 31/31/20 32/32/20 33/33/20
f 31/31/21 32/32/21 13/13/21
f 32/32/22 26/26/22 11/11/22
f 13/13/23 32/32/23 11/11/23
f 19/19/24 34/34/24 35/35/24
f 24/24/25 34/34/25 19/19/25
f 36/36/26 30/30/26 12/12/26
f 37/37/27 38/38/27 39/39/27
f 12/12/28 38/38/28 36/36/28
f 24/24/29 40/40/29 41/41/29
f 39/39/30 22/22/30 42/42/30
f 43/43/31 38/38/31 37/37/31
f 44/44/32 45/45/32 46/46/32
f 43/47/33 45/45/33 41/41/33
f 44/44/34 34/34/34 45/45/34
f 47/48/35 46/49/35 42/42/35
f 34/50/36 44/44/36 15/51/36
f 47/48/37 44/52/37 46/49/38
f 15/51/39 35/53/39 34/50/39
f 18/54/40 15/55/40 47/48/40
f 22/22/41 47/48/41 42/42/41
f 41/41/42 45/45/42 34/34/42
f 24/24/43 36/56/43 40/40/43
f 12/12/44 22/22/44 39/39/44
f 41/41/45 48/57/45 43/47/45
f 41/58/46 49/59/46 50/60/46
f 42/61/47 51/62/47 39/63/47
f 50/60/48 52/64/48 53/65/48
f 40/66/49 48/67/49 52/64/49
f 37/68/50 39/63/50 54/69/50
f 55/70/51 42/71/51 56/72/51
f 52/64/52 41/73/52 53/65/52
f 54/69/53 42/71/53 37/68/53
f 1/1/54 10/10/54 7/7/54
f 6/6/55 5/5/55 9/9/55
f 30/30/56 29/29/56 12/12/56
f 26/26/57 24/24/57 25/25/57
f 11/11/58 22/22/58 12/12/58
f 14/14/59 35/35/59 15/15/59
f 17/17/60 57/74/60 15/15/60
f 19/19/61 35/35/61 14/14/61
f 21/21/62 23/23/62 17/17/62
f 24/24/63 19/19/63 20/20/63
f 22/22/64 11/11/64 23/23/64
f 16/16/65 15/15/65 11/11/65
f 11/11/66 15/15/66 57/74/66
f 26/26/67 29/29/67 27/27/67
f 31/31/68 26/26/68 32/32/68
f 13/13/69 26/26/69 31/31/69
f 29/29/70 26/26/70 13/13/70
f 29/29/71 13/13/71 12/12/71
f 21/21/72 18/18/72 47/75/72
f 22/22/73 21/21/73 47/48/73
f 36/36/74 28/76/74 30/30/74
f 28/28/75 27/27/75 30/30/75
f 26/26/76 28/28/76 36/56/76
f 48/57/77 40/40/77 38/77/77
f 38/77/78 40/40/78 36/56/78
f 12/12/79 39/39/79 38/38/79
f 43/47/80 48/57/80 38/77/80
f 46/46/81 45/45/81 43/47/81
f 42/42/82 46/49/82 43/43/82
f 47/48/37 15/55/83 44/52/37
f 24/24/84 41/41/84 34/34/84
f 24/24/85 26/26/85 36/56/85
f 42/42/86 43/43/86 37/37/86
f 40/66/87 52/64/87 49/59/87
f 51/62/88 54/69/88 39/63/88
f 41/58/89 40/66/89 49/59/89
f 42/61/90 55/78/90 51/62/90
f 52/64/91 50/60/91 49/59/91
f 51/62/92 55/78/92 54/69/92
f 55/78/93 56/72/93 54/69/93
f 50/79/94 53/65/94 41/73/94
f 52/64/95 48/67/95 41/73/95
f 54/69/96 56/72/96 42/71/96
