# Blender v2.91.0 OBJ File: ''
# www.blender.org
o Plane
v 2.223801 -0.638014 0.000000
v 2.361985 -0.776199 0.000000
v 3.638014 0.776199 0.000000
v 3.776199 0.638015 0.000000
vt 1.000000 0.000000
vt 0.000000 1.000000
vt 0.000000 0.000000
vt 1.000000 1.000000
vn 0.0000 0.0000 1.0000
s off
f 2/1/1 3/2/1 1/3/1
f 2/1/1 4/4/1 3/2/1
o Plane.001
v 2.361985 0.776199 0.000000
v 2.223801 0.638014 0.000000
v 3.776199 -0.638014 0.000000
v 3.638015 -0.776199 0.000000
vt 1.000000 0.000000
vt 0.000000 1.000000
vt 0.000000 0.000000
vt 1.000000 1.000000
vn 0.0000 0.0000 1.0000
s off
f 6/5/2 7/6/2 5/7/2
f 6/5/2 8/8/2 7/6/2
o Plane.002
v 0.687319 3.802801 0.000000
v 0.527238 3.914891 0.000000
v -0.459834 2.164497 0.000000
v -0.619914 2.276587 0.000000
vt 1.000000 0.000000
vt 0.000000 1.000000
vt 0.000000 0.000000
vt 1.000000 1.000000
vn 0.0000 0.0000 1.0000
s off
f 10/9/3 11/10/3 9/11/3
f 10/9/3 12/12/3 11/10/3
o Plane.003
v -0.096010 2.994305 0.000000
v 0.016079 3.154386 0.000000
v -0.850897 3.600630 0.000000
v -0.738807 3.760710 0.000000
vt 1.000000 0.000000
vt 0.000000 1.000000
vt 0.000000 0.000000
vt 1.000000 1.000000
vn 0.0000 0.0000 1.0000
s off
f 14/13/4 15/14/4 13/15/4
f 14/13/4 16/16/4 15/14/4
o Plane.004
v 0.695178 0.236087 2.000000
v 0.644817 0.338447 2.000000
v -0.352401 -0.279326 2.000000
v -0.402762 -0.176966 2.000000
vt 1.000000 0.000000
vt 0.000000 1.000000
vt 0.000000 0.000000
vt 1.000000 1.000000
vn 0.0000 0.0000 1.0000
s off
f 18/17/5 19/18/5 17/19/5
f 18/17/5 20/20/5 19/18/5
o Plane.005
v -0.384567 -0.164343 2.000000
v -0.389865 -0.278298 2.000000
v 0.781680 -0.218566 2.000000
v 0.776382 -0.332522 2.000000
vt 1.000000 0.000000
vt 0.000000 1.000000
vt 0.000000 0.000000
vt 1.000000 1.000000
vn 0.0000 0.0000 1.0000
s off
f 22/21/6 23/22/6 21/23/6
f 22/21/6 24/24/6 23/22/6
o Plane.006
v -0.444423 0.572152 1.980358
v -0.468545 0.460653 1.980358
v 0.696685 0.325282 1.980358
v 0.672563 0.213783 1.980358
vt 1.000000 0.000000
vt 0.000000 1.000000
vt 0.000000 0.000000
vt 1.000000 1.000000
vn 0.0000 0.0000 1.0000
s off
f 26/25/7 27/26/7 25/27/7
f 26/25/7 28/28/7 27/26/7
