# Blender v2.92.0 OBJ File: ''
# www.blender.org
mtllib column.mtl
o Cone
v 0.000000 1.000000 -1.000000
v -0.866025 1.000000 0.500000
v 0.866025 1.000000 0.500000
v 0.000000 24.981983 -1.000000
v -0.866025 24.981983 0.500000
v 0.866025 24.981983 0.500000
vt 0.072224 0.000000
vt 0.000000 1.000000
vt 0.000001 0.000000
vt 0.279219 0.072223
vt 0.279219 0.144446
vt 0.216672 0.108335
vt 0.279219 0.072223
vt 0.216672 0.036112
vt 0.279219 0.000000
vt 0.144449 1.000000
vt 0.216672 0.000000
vt 0.216672 1.000000
vt 0.144448 0.000000
vt 0.072224 1.000000
vt 0.144448 0.000000
vt 0.144448 1.000000
vn 0.0000 -0.5547 -0.8320
vn 0.7206 0.5547 0.4160
vn 0.7206 -0.5547 0.4160
vn -0.7206 -0.5547 0.4160
vn 0.0000 0.5547 -0.8320
vn -0.7206 0.5547 0.4160
usemtl Material.001
s 1
f 1/1/1 6/2/2 3/3/3
f 1/4/1 3/5/3 2/6/4
f 4/7/5 5/8/6 6/9/2
f 3/10/3 5/11/6 2/12/4
f 2/13/4 4/14/5 1/1/1
f 1/1/1 4/14/5 6/2/2
f 3/10/3 6/15/2 5/11/6
f 2/13/4 5/16/6 4/14/5
