# Blender v2.92.0 OBJ File: ''
# www.blender.org
mtllib corridor_t_floor.mtl
o Plane.002_Plane.004
v -6.999023 0.000000 1.000000
v 1.000000 0.000000 1.000000
v -6.999023 0.000000 -1.000000
v 1.000000 0.000000 -1.000000
v -4.000000 0.000000 1.000000
v -2.000000 0.000000 1.000000
v -2.000000 0.000000 -1.000000
v -4.000000 0.000000 -1.000000
v -4.000000 0.000000 1.000000
v -2.000000 0.000000 1.000000
v -4.000000 0.000000 4.000000
v -2.000000 0.000000 4.000000
vt 1.000000 0.379467
vt 0.624954 0.629497
vt 0.624954 0.379467
vt 0.374924 0.379467
vt 0.000000 0.629497
vt 0.000000 0.379467
vt 0.374924 0.629497
vt 0.374962 0.375103
vt 0.625030 0.375104
vt 0.625031 0.000001
vt 1.000000 0.629497
vt 0.374963 0.000000
vn 0.0000 1.0000 0.0000
vn 0.0000 0.0000 1.0000
usemtl Material.002
s off
f 2/1/1 7/2/1 6/3/1
f 5/4/1 3/5/1 1/6/1
f 5/4/1 7/2/1 8/7/1
f 6/3/2 9/8/2 10/9/2
f 9/8/1 12/10/1 10/9/1
f 2/1/1 4/11/1 7/2/1
f 5/4/1 8/7/1 3/5/1
f 5/4/1 6/3/1 7/2/1
f 6/3/2 5/4/2 9/8/2
f 9/8/1 11/12/1 12/10/1
