# Blender v2.92.0 OBJ File: ''
# www.blender.org
mtllib corridor_corner_outer.mtl
o Plane.005_Plane.007
v -4.000000 0.000000 -1.000000
v 1.000000 0.000000 -1.000000
v -4.000000 1.000000 -1.000000
v 1.000000 1.000000 -1.000000
v -4.000000 0.000000 4.000000
v -4.000000 1.000000 4.000000
vt 0.200000 1.000000
vt 0.000000 0.000000
vt 0.200000 0.000000
vt 0.400000 0.000000
vt 0.200000 1.000000
vt 0.000000 1.000000
vt 0.400000 1.000000
vn 0.0000 -0.0000 1.0000
vn 1.0000 0.0000 0.0000
usemtl Material.006
s off
f 2/1/1 3/2/1 1/3/1
f 3/4/2 5/5/2 1/3/2
f 2/1/1 4/6/1 3/2/1
f 3/4/2 6/7/2 5/5/2
