# Blender v2.92.0 OBJ File: 'corridor_pieces.blend'
# www.blender.org
mtllib corridor_x_floor.mtl
o Plane.004_Plane.006
v -2.000000 0.000000 1.000000
v 1.000000 0.000000 1.000000
v -2.000000 0.000000 -1.000000
v 1.000000 0.000000 -1.000000
v -4.000000 0.000000 1.000000
v -4.000000 0.000000 -1.000000
v -7.000000 0.000000 1.000000
v -7.000000 0.000000 -1.000000
v -2.000000 0.000000 1.000000
v -4.000000 0.000000 1.000000
v -2.000000 0.000000 4.000000
v -4.000000 0.000000 4.000000
v -2.000000 0.000000 -4.000000
v -4.000000 0.000000 -4.000000
v -2.000000 0.000000 1.000000
v 1.000000 0.000000 1.000000
v -2.000000 0.000000 -1.000000
v 1.000000 0.000000 -1.000000
v -4.000000 0.000000 1.000000
v -4.000000 0.000000 -1.000000
v -7.000000 0.000000 1.000000
v -7.000000 0.000000 -1.000000
v -2.000000 0.000000 1.000000
v -4.000000 0.000000 1.000000
v -2.000000 0.000000 4.000000
v -4.000000 0.000000 4.000000
v -2.000000 0.000000 -4.000000
v -4.000000 0.000000 -4.000000
vt 1.000000 0.379420
vt 0.625000 0.379420
vt 0.625000 0.629420
vt 0.375000 0.379420
vt 0.375000 0.629420
vt 0.000000 0.379420
vt 0.625076 0.375058
vt 0.375038 0.375057
vt 0.625077 0.000001
vt 0.625610 0.629827
vt 0.375610 0.629420
vt 0.375000 1.004420
vt 1.000000 0.629420
vt 0.000000 0.629420
vt 0.375039 0.000000
vt 0.625000 1.004827
vt 1.000000 0.379420
vt 0.625000 0.629420
vt 0.625000 0.379420
vt 0.375000 0.379420
vt 0.375000 0.629420
vt 0.000000 0.379420
vt 0.375038 0.375057
vt 0.625076 0.375058
vt 0.625077 0.000001
vt 0.625610 0.629827
vt 0.375000 1.004420
vt 0.375610 0.629420
vt 1.000000 0.629420
vt 0.000000 0.629420
vt 0.375039 0.000000
vt 0.625000 1.004827
vn 0.0000 -1.0000 0.0000
vn 0.0000 0.0000 1.0000
vn 0.0000 1.0000 0.0000
usemtl Material.005
s off
f 2/1/1 1/2/1 3/3/1
f 3/3/1 1/2/1 5/4/1
f 6/5/1 5/4/1 7/6/1
f 1/2/2 9/7/2 10/8/2
f 10/8/1 9/7/1 11/9/1
f 3/10/1 6/11/1 14/12/1
f 2/1/1 3/3/1 4/13/1
f 3/3/1 5/4/1 6/5/1
f 6/5/1 7/6/1 8/14/1
f 1/2/2 10/8/2 5/4/2
f 10/8/1 11/9/1 12/15/1
f 3/10/1 14/12/1 13/16/1
f 16/17/3 17/18/3 15/19/3
f 17/18/3 19/20/3 15/19/3
f 20/21/3 21/22/3 19/20/3
f 15/19/2 24/23/2 23/24/2
f 24/23/3 25/25/3 23/24/3
f 17/26/3 28/27/3 20/28/3
f 16/17/3 18/29/3 17/18/3
f 17/18/3 20/21/3 19/20/3
f 20/21/3 22/30/3 21/22/3
f 15/19/2 19/20/2 24/23/2
f 24/23/3 26/31/3 25/25/3
f 17/26/3 27/32/3 28/27/3
f 11/9/2 23/24/2 25/25/2
f 6/5/2 22/30/2 20/21/2
f 1/2/2 16/17/2 15/19/2
f 13/16/2 28/27/2 27/32/2
f 7/6/2 19/20/2 21/22/2
f 2/1/2 18/29/2 16/17/2
f 3/10/2 27/32/2 17/26/2
f 4/13/2 17/18/2 18/29/2
f 14/12/2 20/28/2 28/27/2
f 5/4/2 24/23/2 19/20/2
f 9/7/2 15/19/2 23/24/2
f 12/15/2 25/25/2 26/31/2
f 10/8/2 26/31/2 24/23/2
f 8/14/2 21/22/2 22/30/2
f 11/9/2 9/7/2 23/24/2
f 6/5/2 8/14/2 22/30/2
f 1/2/2 2/1/2 16/17/2
f 13/16/2 14/12/2 28/27/2
f 7/6/2 5/4/2 19/20/2
f 2/1/2 4/13/2 18/29/2
f 3/10/2 13/16/2 27/32/2
f 4/13/2 3/3/2 17/18/2
f 14/12/2 6/11/2 20/28/2
f 5/4/2 10/8/2 24/23/2
f 9/7/2 1/2/2 15/19/2
f 12/15/2 11/9/2 25/25/2
f 10/8/2 12/15/2 26/31/2
f 8/14/2 7/6/2 21/22/2
