# Blender v2.92.0 OBJ File: ''
# www.blender.org
mtllib jetpack.mtl
o Sphere
v 0.000000 1.665337 -0.587785
v 0.000000 0.636102 -0.951057
v 1.186681 -0.636102 -0.097599
v 0.415627 1.665337 -0.415627
v 0.587785 1.665337 0.000000
v 0.415627 1.665337 0.415627
v 0.672499 0.636102 0.672499
v 0.672499 -0.636102 0.672499
v 0.672499 0.636102 -0.672499
v 0.000000 1.665337 0.587785
v 0.000000 0.636102 0.951057
v -0.000000 2.058470 0.000000
v -0.415627 1.665337 0.415627
v -0.672499 0.636102 0.672499
v -0.672499 -0.636102 0.672499
v 1.186682 0.636102 -0.097599
v -0.587785 1.665337 0.000000
v -0.951057 0.636102 0.000000
v -0.951057 -0.636102 0.000000
v -0.415627 1.665337 -0.415627
v -0.672499 0.636102 -0.672498
v -0.672499 -0.636102 -0.672498
v 0.908123 0.636102 -0.770098
v 0.908123 -0.636102 -0.770097
v 1.294874 0.636102 0.163602
v 1.294874 -0.636102 0.163602
v 0.672499 -0.636102 -0.672498
v 0.799931 0.636102 -1.031298
v 0.799931 -0.636102 -1.031298
v 0.951057 0.636102 0.000000
v 1.186682 0.558805 -0.097599
v 0.908123 0.558805 -0.770098
v 1.294874 0.558805 0.163602
v 0.799931 0.558805 -1.031298
v 0.000000 -0.636102 -0.951056
v 1.186681 -0.577684 -0.097599
v 0.908123 -0.577684 -0.770097
v 0.000000 -0.636102 0.951057
v 1.294874 -0.577684 0.163602
v 0.799931 -0.577684 -1.031298
v 0.951057 -0.636102 0.000000
v 1.447956 -0.557022 -0.205822
v 1.447956 -0.615440 -0.205822
v 1.169398 -0.557022 -0.878321
v 1.169398 -0.615440 -0.878321
v 1.556149 -0.557022 0.055378
v 1.556149 -0.615440 0.055378
v 1.011096 -0.487490 -1.107548
v 1.061205 -0.615440 -1.139522
v 1.556149 0.636102 0.055378
v 1.447956 0.636102 -0.205822
v 1.169398 0.636102 -0.878321
v 1.061205 0.636102 -1.139522
v 1.447956 0.558805 -0.205822
v 1.169398 0.558805 -0.878321
v 1.556149 0.558805 0.055378
v 1.061205 0.558805 -1.139522
v 1.860089 -0.146268 -0.106577
v 1.784092 -0.141350 -0.268644
v 1.473338 -0.146268 -1.040276
v 1.397341 -0.141350 -1.202343
v 1.759218 -0.121974 -0.213082
v 1.442871 -0.127747 -1.001936
v 1.829622 -0.127747 -0.068237
v 1.372467 -0.121974 -1.146781
v 1.645129 -0.358250 -0.287494
v 1.366571 -0.358250 -0.959993
v 1.366571 -0.416668 -0.959993
v 1.753322 -0.358250 -0.026294
v 1.753322 -0.416668 -0.026294
v 1.258378 -0.416668 -1.221194
v 1.258378 -0.358250 -1.221194
v 1.645129 -0.416668 -0.287494
v -0.701748 -0.700343 0.701748
v -0.992421 -0.700343 0.000000
v -0.701748 -0.700343 -0.701747
v 0.701748 -0.700343 -0.701747
v 0.992421 -0.700343 0.000000
v 0.000000 -0.700343 -0.992421
v 0.701748 -0.700343 0.701748
v 0.000000 -0.700343 0.992421
vt 0.803703 0.258072
vt 0.769256 0.199290
vt 0.770887 0.249321
vt 0.230341 0.809239
vt 0.239874 0.821449
vt 0.228284 0.844833
vt 0.690719 0.531489
vt 0.722671 0.522306
vt 0.721987 0.521769
vt 0.215009 0.837507
vt 0.230132 0.795426
vt 0.150462 0.560955
vt 0.220655 0.882032
vt 0.241570 0.872845
vt 0.269081 0.940697
vt 0.288170 0.839758
vt 0.257659 0.832616
vt 0.801618 0.565558
vt 0.769375 0.265587
vt 0.270272 0.745682
vt 0.762326 0.240209
vt 0.256282 0.788780
vt 0.720089 0.513213
vt 0.710101 0.320852
vt 0.715766 0.509048
vt 0.240180 0.686565
vt 0.714883 0.314642
vt 0.685927 0.295614
vt 0.717350 0.305492
vt 0.247281 0.764308
vt 0.219476 0.672363
vt 0.288695 0.505931
vt 0.224006 0.547181
vt 0.228250 0.729969
vt 0.236923 0.776937
vt 0.772167 0.563395
vt 0.788341 0.584592
vt 0.719380 0.518258
vt 0.778441 0.644113
vt 0.795789 0.661595
vt 0.246519 0.801140
vt 0.283672 0.685706
vt 0.787226 0.286654
vt 0.798697 0.546224
vt 0.329226 0.842545
vt 0.323251 0.580976
vt 0.295971 0.860003
vt 0.777538 0.571469
vt 0.313011 0.910851
vt 0.716528 0.305722
vt 0.774241 0.251371
vt 0.718836 0.517523
vt 0.718600 0.517729
vt 0.767936 0.247369
vt 0.768119 0.250260
vt 0.713485 0.309820
vt 0.712484 0.310386
vt 0.712621 0.310378
vt 0.766446 0.245243
vt 0.765622 0.245880
vt 0.766650 0.245993
vt 0.712141 0.311901
vt 0.718168 0.516502
vt 0.720352 0.517864
vt 0.780339 0.650016
vt 0.719627 0.516659
vt 0.714573 0.310274
vt 0.803703 0.647903
vt 0.713774 0.311492
vt 0.803846 0.232194
vt 0.810277 0.251201
vt 0.804164 0.254154
vt 0.810277 0.223698
vt 0.803846 0.204691
vt 0.810277 0.199290
vt 0.718734 0.517731
vt 0.718544 0.517700
vt 0.712699 0.310551
vt 0.712807 0.310420
vt 0.783862 0.709504
vt 0.769157 0.246945
vt 0.781311 0.729581
vt 0.794414 0.761685
vt 0.794449 0.708478
vt 0.767356 0.246864
vt 0.766755 0.246541
vt 0.767593 0.246545
vt 0.766923 0.246276
vt 0.783886 0.729681
vt 0.778146 0.736541
vt 0.783255 0.722583
vt 0.788707 0.720276
vt 0.262640 0.632456
vt 0.272076 0.604748
vt 0.334222 0.974538
vt 0.230236 0.668983
vt 0.299759 0.788318
vt 0.349847 0.962617
vt 0.287403 0.850660
vt 0.810277 0.226793
vt 0.804164 0.226651
vn -0.4297 0.0000 0.9030
vn 0.2244 0.8100 -0.5418
vn -0.9423 0.0000 -0.3347
vn 0.3638 0.3100 -0.8784
vn 0.8784 0.3100 -0.3638
vn 0.5418 0.8100 -0.2244
vn 0.8784 0.3100 0.3638
vn 0.5418 0.8100 0.2244
vn 0.3638 0.3100 0.8784
vn 0.2244 0.8100 0.5418
vn 0.0000 -1.0000 0.0000
vn -0.3638 0.3100 0.8784
vn 0.0673 -0.9973 -0.0279
vn -0.2244 0.8100 0.5418
vn 0.9239 0.0000 -0.3827
vn -0.8784 0.3100 0.3638
vn 0.0000 1.0000 -0.0000
vn -0.5418 0.8100 0.2244
vn -0.7940 0.5113 -0.3289
vn -0.8784 0.3100 -0.3638
vn -0.5418 0.8100 -0.2244
vn -0.3638 0.3100 -0.8784
vn -0.2244 0.8100 -0.5418
vn -0.3827 0.0000 -0.9239
vn -0.3868 0.0781 -0.9189
vn -0.9239 0.0000 -0.3827
vn -0.9239 0.0000 0.3827
vn -0.3827 0.0000 0.9239
vn 0.3827 -0.0000 0.9239
vn 0.9239 -0.0000 0.3827
vn 0.3827 -0.0000 -0.9239
vn -0.0673 0.9973 0.0279
vn -0.8805 -0.3998 -0.2547
vn -0.8303 -0.4005 0.3876
vn -0.3447 0.9278 0.1428
vn -0.3740 -0.9160 0.1453
vn -0.3779 -0.9137 0.1495
vn 0.4703 0.0000 0.8825
vn 0.8486 0.3953 -0.3515
vn 0.6297 -0.7318 -0.2608
vn -0.6297 0.7318 0.2608
vn -0.2514 0.8642 0.4358
vn 0.8095 -0.4363 -0.3928
vn -0.8785 0.3096 0.3639
vn 0.7455 -0.1277 0.6541
vn 0.1344 0.0000 -0.9909
vn 0.7940 0.5113 0.3289
vn -0.7940 0.5113 0.3289
vn 0.3289 0.5113 -0.7940
vn -0.3289 0.5113 -0.7940
vn 0.7940 0.5113 -0.3289
vn -0.3289 0.5113 0.7940
vn 0.3289 0.5113 0.7940
vn -0.3396 0.0000 -0.9406
vn -0.1837 0.0000 -0.9830
vn -0.8498 -0.3923 0.3520
vn 0.0349 0.9628 0.2680
vn 0.8129 0.2273 0.5362
vn 0.8336 0.4022 -0.3787
vn -0.4394 0.0520 -0.8968
vn 0.8456 -0.4028 -0.3503
vn -0.8358 0.3532 0.4203
vn 0.6010 0.0000 0.7993
vn -0.7125 0.4993 -0.4931
vn -0.7124 0.4993 -0.4931
usemtl Material.001
s off
f 41/1/1 26/2/1 39/3/1
f 1/4/2 12/5/2 4/6/2
f 9/7/3 28/8/3 34/9/3
f 1/4/4 9/10/4 2/11/4
f 4/6/5 30/12/5 9/10/5
f 4/6/6 12/5/6 5/13/6
f 30/12/7 6/14/7 7/15/7
f 5/13/8 12/5/8 6/14/8
f 6/14/9 11/16/9 7/15/9
f 6/14/10 12/5/10 10/17/10
f 27/18/11 3/19/11 41/1/11
f 10/17/12 14/20/12 11/16/12
f 3/19/13 47/21/13 26/2/13
f 10/17/14 12/5/14 13/22/14
f 23/23/15 31/24/15 32/25/15
f 13/22/16 18/26/16 14/20/16
f 16/27/17 30/28/17 25/29/17
f 13/22/18 12/5/18 17/30/18
f 22/31/19 75/32/19 19/33/19
f 17/30/20 21/34/20 18/26/20
f 30/28/17 23/23/17 9/7/17
f 17/30/21 12/5/21 20/35/21
f 20/35/22 2/11/22 21/34/22
f 20/35/23 12/5/23 1/4/23
f 9/7/17 23/23/17 28/8/17
f 24/36/11 27/18/11 29/37/11
f 41/1/11 3/19/11 26/2/11
f 28/8/24 57/38/24 34/9/24
f 29/37/25 48/39/25 49/40/25
f 21/34/24 35/41/24 22/31/24
f 18/26/26 22/31/26 19/33/26
f 14/20/27 19/33/27 15/42/27
f 32/25/15 36/43/15 37/44/15
f 11/16/28 15/42/28 38/45/28
f 31/24/15 39/3/15 36/43/15
f 7/15/29 38/45/29 8/46/29
f 41/47/30 7/15/30 8/46/30
f 27/18/3 34/9/3 40/48/3
f 2/11/31 27/49/31 35/41/31
f 30/28/1 33/50/1 25/29/1
f 27/18/3 40/48/3 29/37/3
f 39/3/32 42/51/32 36/43/32
f 37/44/15 3/19/15 24/36/15
f 37/44/15 34/9/15 32/25/15
f 41/1/1 33/50/1 30/28/1
f 57/38/33 61/52/33 65/53/33
f 42/51/24 73/54/24 43/55/24
f 56/56/34 62/57/34 64/58/34
f 46/59/29 70/60/29 69/61/29
f 16/27/24 54/62/24 31/24/24
f 34/9/11 55/63/11 32/25/11
f 31/24/11 56/56/11 33/50/11
f 23/23/17 53/64/17 28/8/17
f 24/36/13 49/40/13 45/65/13
f 32/25/29 52/66/29 23/23/29
f 39/3/29 47/21/29 46/59/29
f 36/43/24 43/55/24 3/19/24
f 33/50/29 50/67/29 25/29/29
f 37/44/29 45/65/29 44/68/29
f 37/44/35 48/39/35 40/48/35
f 25/29/17 51/69/17 16/27/17
f 62/70/36 58/71/36 64/72/36
f 60/73/37 65/74/37 61/75/37
f 55/63/38 60/76/38 52/66/38
f 55/63/34 65/53/34 63/77/34
f 56/56/38 58/78/38 50/67/38
f 54/62/33 59/79/33 62/57/33
f 52/66/39 61/52/39 53/64/39
f 50/67/39 59/79/39 51/69/39
f 49/40/40 68/80/40 45/65/40
f 43/55/40 70/60/40 47/21/40
f 42/51/41 69/61/41 66/81/41
f 49/40/24 72/82/24 71/83/24
f 44/68/29 68/80/29 67/84/29
f 44/68/42 72/82/42 48/39/42
f 70/60/43 59/85/43 58/86/43
f 69/61/44 62/87/44 66/81/44
f 69/61/45 58/86/45 64/88/45
f 66/81/46 59/85/46 73/54/46
f 67/84/44 65/89/44 72/82/44
f 68/80/43 61/90/43 60/91/43
f 72/82/46 61/90/46 71/83/46
f 67/84/45 60/91/45 63/92/45
f 75/32/11 76/93/11 80/94/11
f 41/47/47 80/94/47 78/95/47
f 15/42/48 75/32/48 74/96/48
f 27/49/49 79/97/49 35/41/49
f 22/31/50 79/97/50 76/93/50
f 41/47/51 77/98/51 27/49/51
f 15/42/52 81/99/52 38/45/52
f 8/46/53 81/99/53 80/94/53
f 1/4/4 4/6/4 9/10/4
f 4/6/5 5/13/5 30/12/5
f 30/12/7 5/13/7 6/14/7
f 6/14/9 10/17/9 11/16/9
f 27/18/11 24/36/11 3/19/11
f 10/17/12 13/22/12 14/20/12
f 3/19/13 43/55/13 47/21/13
f 23/23/15 16/27/15 31/24/15
f 13/22/16 17/30/16 18/26/16
f 22/31/19 76/93/19 75/32/19
f 17/30/20 20/35/20 21/34/20
f 30/28/17 16/27/17 23/23/17
f 20/35/22 1/4/22 2/11/22
f 28/8/24 53/64/24 57/38/24
f 29/37/54 40/48/54 48/39/54
f 21/34/24 2/11/24 35/41/24
f 18/26/26 21/34/26 22/31/26
f 14/20/27 18/26/27 19/33/27
f 32/25/15 31/24/15 36/43/15
f 11/16/28 14/20/28 15/42/28
f 31/24/15 33/50/15 39/3/15
f 7/15/29 11/16/29 38/45/29
f 41/47/30 30/12/30 7/15/30
f 27/18/3 9/7/3 34/9/3
f 2/11/31 9/10/31 27/49/31
f 39/3/32 46/59/32 42/51/32
f 37/44/15 36/43/15 3/19/15
f 37/44/15 40/48/15 34/9/15
f 41/1/1 39/3/1 33/50/1
f 57/38/55 53/64/55 61/52/55
f 42/51/24 66/81/24 73/54/24
f 56/56/56 54/62/56 62/57/56
f 46/59/29 47/21/29 70/60/29
f 16/27/24 51/69/24 54/62/24
f 34/9/11 57/38/11 55/63/11
f 31/24/11 54/62/11 56/56/11
f 23/23/17 52/66/17 53/64/17
f 24/36/13 29/37/13 49/40/13
f 32/25/29 55/63/29 52/66/29
f 39/3/29 26/2/29 47/21/29
f 36/43/24 42/51/24 43/55/24
f 33/50/29 56/56/29 50/67/29
f 37/44/29 24/36/29 45/65/29
f 37/44/57 44/68/57 48/39/57
f 25/29/17 50/67/17 51/69/17
f 62/70/37 59/100/37 58/71/37
f 60/73/36 63/101/36 65/74/36
f 55/63/58 63/77/58 60/76/58
f 55/63/56 57/38/56 65/53/56
f 56/56/58 64/58/58 58/78/58
f 54/62/55 51/69/55 59/79/55
f 52/66/59 60/76/59 61/52/59
f 50/67/59 58/78/59 59/79/59
f 49/40/40 71/83/40 68/80/40
f 43/55/40 73/54/40 70/60/40
f 42/51/41 46/59/41 69/61/41
f 49/40/60 48/39/60 72/82/60
f 44/68/29 45/65/29 68/80/29
f 44/68/41 67/84/41 72/82/41
f 70/60/61 73/54/61 59/85/61
f 69/61/62 64/88/62 62/87/62
f 69/61/63 70/60/63 58/86/63
f 66/81/64 62/87/64 59/85/64
f 67/84/62 63/92/62 65/89/62
f 68/80/61 71/83/61 61/90/61
f 72/82/65 65/89/65 61/90/65
f 67/84/63 68/80/63 60/91/63
f 76/93/11 79/97/11 80/94/11
f 79/97/11 77/98/11 80/94/11
f 77/98/11 78/95/11 80/94/11
f 80/94/11 81/99/11 74/96/11
f 74/96/11 75/32/11 80/94/11
f 41/47/47 8/46/47 80/94/47
f 15/42/48 19/33/48 75/32/48
f 27/49/49 77/98/49 79/97/49
f 22/31/50 35/41/50 79/97/50
f 41/47/51 78/95/51 77/98/51
f 15/42/52 74/96/52 81/99/52
f 8/46/53 38/45/53 81/99/53
