# Blender v2.92.0 OBJ File: ''
# www.blender.org
mtllib keycard.mtl
o Cube
v 0.038076 0.581144 -1.000000
v 0.038076 -0.581144 -1.000000
v 0.038076 0.581144 1.000000
v 0.038076 -0.581144 1.000000
v -0.038076 0.581144 -1.000000
v -0.038076 -0.581144 -1.000000
v -0.038076 0.581144 1.000000
v -0.038076 -0.581144 1.000000
vt 0.279631 0.781902
vt 0.187633 0.682618
vt 0.283272 0.778260
vt 0.128409 0.630677
vt 0.132051 0.627035
vt 0.183991 0.686260
vt 0.224049 0.837483
vt 0.128409 0.741840
vt 0.220407 0.841124
vt 0.243214 0.627038
vt 0.338854 0.722680
vt 0.338854 0.833844
vt 0.335213 0.837485
vt 0.124767 0.745482
vn 0.0000 1.0000 0.0000
vn 0.0000 0.0000 1.0000
vn -1.0000 0.0000 0.0000
vn 0.0000 -1.0000 0.0000
vn 1.0000 0.0000 0.0000
vn 0.0000 0.0000 -1.0000
usemtl Material
s off
f 5/1/1 3/2/1 1/3/1
f 3/2/2 8/4/2 4/5/2
f 7/6/3 6/7/3 8/8/3
f 2/9/4 8/8/4 6/7/4
f 1/3/5 4/10/5 2/11/5
f 5/1/6 2/12/6 6/13/6
f 5/1/1 7/6/1 3/2/1
f 3/2/2 7/6/2 8/4/2
f 7/6/3 5/1/3 6/7/3
f 2/9/4 4/14/4 8/8/4
f 1/3/5 3/2/5 4/10/5
f 5/1/6 1/3/6 2/12/6
