# Blender v2.92.0 OBJ File: ''
# www.blender.org
mtllib keypad.mtl
o Cube
v 0.123518 0.685912 -0.879338
v 0.123518 0.014626 -0.879338
v 0.123518 0.685912 -0.675294
v -0.335149 0.014626 -0.879338
v 0.123518 0.014626 -0.675294
v -0.335149 0.685912 -0.879338
v -0.335149 0.685912 -0.675294
v -0.335149 0.014626 -0.675294
vt 0.116606 0.616536
vt 0.378566 0.500000
vt 0.378566 0.616536
vt 0.116607 0.116606
vt 0.378566 0.116607
vt 0.116607 0.500000
vt 0.000071 0.116606
vt 0.378566 0.000070
vt 0.116607 0.000070
vt 0.495102 0.500000
vt 0.495102 0.116607
vt 0.378566 0.999930
vt 0.116606 0.999930
vt 0.000070 0.500000
vn 0.0000 1.0000 0.0000
vn 0.0000 0.0000 1.0000
vn -1.0000 0.0000 0.0000
vn 0.0000 -1.0000 0.0000
vn 1.0000 -0.0000 -0.0000
vn 0.0000 0.0000 -1.0000
usemtl Material
s off
f 6/1/1 3/2/1 1/3/1
f 3/2/2 8/4/2 5/5/2
f 7/6/3 4/7/3 8/4/3
f 2/8/4 8/4/4 4/9/4
f 1/10/5 5/5/5 2/11/5
f 6/1/6 2/12/6 4/13/6
f 6/1/1 7/6/1 3/2/1
f 3/2/2 7/6/2 8/4/2
f 7/6/3 6/14/3 4/7/3
f 2/8/4 5/5/4 8/4/4
f 1/10/5 3/2/5 5/5/5
f 6/1/6 1/3/6 2/12/6
