# Blender v2.92.0 OBJ File: ''
# www.blender.org
mtllib lamp_breakable.mtl
o Cube_Cube.001
v 1.000000 0.359451 1.000000
v 1.000000 -0.359451 1.000000
v 1.000000 0.359451 -1.000000
v 1.000000 -0.359451 -1.000000
v -1.000000 0.359451 1.000000
v -1.000000 -0.359451 1.000000
v -1.000000 0.359451 -1.000000
v -1.000000 -0.359451 -1.000000
vt 0.207026 0.369350
vt 0.207026 0.693999
vt 0.044702 0.531675
vt 0.369350 0.531675
vt 0.693999 0.531675
vt 0.531675 0.693999
vt 0.531675 0.369350
vt 0.531675 0.044702
vt 0.693999 0.207026
vt 0.369350 0.207026
vt 0.044702 0.207026
vt 0.207026 0.044702
vt 0.261199 0.738801
vt 0.000100 0.999900
vt 0.000100 0.738801
vt 0.746048 0.985087
vt 0.746048 0.733338
vt 0.871922 0.859212
vt 0.261199 0.999900
vt 0.620174 0.859212
vn 1.0000 0.0000 0.0000
vn 0.0000 0.0000 -1.0000
vn -1.0000 0.0000 0.0000
vn 0.0000 0.0000 1.0000
vn 0.0000 1.0000 0.0000
vn 0.0000 -1.0000 0.0000
usemtl Material.001
s off
f 2/1/1 3/2/1 1/3/1
f 4/4/2 7/5/2 3/6/2
f 8/7/3 5/8/3 7/9/3
f 6/10/4 1/11/4 5/12/4
f 7/13/5 1/14/5 3/15/5
f 4/16/6 6/17/6 8/18/6
f 2/1/1 4/4/1 3/2/1
f 4/4/2 8/7/2 7/5/2
f 8/7/3 6/10/3 5/8/3
f 6/10/4 2/1/4 1/11/4
f 7/13/5 5/19/5 1/14/5
f 4/16/6 2/20/6 6/17/6
