# Blender v2.91.0 OBJ File: ''
# www.blender.org
v -0.112237 -0.183121 -0.441705
v -0.062923 -0.195355 -0.402768
v -0.130031 -0.132634 -0.371007
v 0.068447 -0.179330 -0.432555
v 0.092272 -0.158175 -0.488074
v 0.126368 -0.101357 -0.429141
v -0.026512 -0.148363 -0.405807
v 0.024519 -0.142138 -0.417377
v 0.082630 -0.089706 -0.474808
v -0.113818 -0.113670 -0.430267
v 0.071764 -0.173877 -0.424948
v 0.089385 -0.113056 -0.293747
v 0.041975 -0.198688 -0.360607
v -0.090682 -0.178142 -0.460292
v -0.013311 -0.152764 -0.469947
v -0.055821 -0.171083 -0.442126
v 0.064353 -0.159231 -0.495443
v 0.024393 -0.134869 -0.572442
v -0.213062 -0.151777 -0.423131
v -0.137774 -0.172597 -0.400054
v 0.181288 -0.103672 -0.512543
v 0.193331 -0.091185 -0.421236
v 0.129938 -0.139940 -0.460754
v -0.187634 -0.137656 -0.334858
v -0.065602 -0.192148 -0.395840
v -0.016119 -0.198671 -0.332396
v 0.062348 -0.223709 -0.174424
v -0.028548 -0.190182 -0.111874
v 0.055803 -0.200266 -0.321237
v 0.160974 -0.169734 -0.156169
v 0.022713 -0.205640 -0.339513
v 0.019062 -0.189363 -0.346857
v 0.022536 -0.194743 -0.334431
v -0.196691 -0.080910 -0.416059
v -0.094010 -0.149312 -0.545596
v -0.011239 -0.105184 -0.234527
v 0.153083 0.115094 -0.322381
v 0.005362 0.153329 -0.222912
v 0.171071 0.042250 -0.336707
v -0.162723 0.001533 -0.261025
v -0.239707 0.059702 -0.340614
v 0.192203 0.119673 -0.458414
v -0.042083 0.252602 -0.378756
v -0.141922 0.004992 -0.551686
v -0.224749 0.113310 -0.427781
v 0.031091 0.128461 -0.580433
v 0.153746 -0.038163 -0.495515
v -0.157545 0.077202 -0.251951
v -0.211071 0.052812 -0.269456
v -0.302174 0.087737 -0.345993
v 0.198089 0.102723 -0.362227
v -0.301312 0.081183 -0.240045
v -0.333836 0.101655 -0.318163
v 0.283127 0.152475 -0.372557
v 0.237325 0.153547 -0.468315
v 0.273701 0.175765 -0.455913
v 0.039937 -0.159402 -0.463837
vt 0.892756 0.614534
vt 0.857930 0.621256
vt 0.872791 0.530002
vt 0.856790 0.789371
vt 0.891284 0.797632
vt 0.867586 0.881194
vt 0.820148 0.678020
vt 0.821565 0.730986
vt 0.959331 0.805748
vt 0.961096 0.609446
vt 0.450203 0.268934
vt 0.404365 0.111912
vt 0.499235 0.192754
vt 0.607494 0.325744
vt 0.522987 0.394183
vt 0.578937 0.310216
vt 0.433489 0.328791
vt 0.426877 0.396927
vt 0.697918 0.313719
vt 0.644292 0.286364
vt 0.340533 0.320184
vt 0.329606 0.253619
vt 0.394714 0.289933
vt 0.706158 0.249587
vt 0.590336 0.268218
vt 0.551957 0.177326
vt 0.519406 0.075820
vt 0.554214 0.057520
vt 0.498332 0.166146
vt 0.484035 0.057798
vt 0.519132 0.185382
vt 0.519841 0.200843
vt 0.517577 0.190607
vt 0.761461 0.316752
vt 0.616854 0.392674
vt 0.391712 0.020395
vt 0.188695 0.140323
vt 0.148899 0.029325
vt 0.244590 0.163315
vt 0.786307 0.164535
vt 0.830182 0.209381
vt 0.183903 0.216232
vt 0.033476 0.160709
vt 0.887453 0.343481
vt 0.874212 0.241824
vt 0.999856 0.254640
vt 0.981242 0.170124
vt 0.258699 0.325158
vt 0.092202 0.302027
vt 0.774934 0.313884
vt 0.828202 0.453947
vt 0.087074 0.412341
vt 0.763104 0.431376
vt 0.279233 0.458048
vt 0.215430 0.477965
vt 0.646382 0.069241
vt 0.844162 0.143417
vt 0.402311 0.849094
vt 0.438040 0.735610
vt 0.534672 0.861466
vt 0.353108 0.847951
vt 0.320191 0.733036
vt 0.363070 0.646683
vt 0.545024 0.737699
vt 0.590960 0.787400
vt 0.397196 0.648466
vt 0.487205 0.611647
vt 0.274087 0.608281
vt 0.212927 0.732262
vt 0.044268 0.710074
vt 0.084537 0.551771
vt 0.165465 0.780706
vt 0.649822 0.581235
vt 0.461852 0.312096
vt 0.273196 0.326526
vt 0.470636 0.000144
vt 0.883305 0.043383
vt 0.219754 0.856746
vt 0.716198 0.720783
vn -0.5114 -0.7550 0.4104
vn 0.7951 -0.5956 0.1142
vn 0.2917 -0.1651 0.9422
vn 0.1831 -0.1783 0.9668
vn 0.4915 -0.4298 -0.7575
vn -0.6542 -0.5695 -0.4977
vn -0.7177 0.0337 -0.6955
vn -0.9660 0.0205 -0.2577
vn 0.8081 -0.5684 0.1549
vn 0.2857 -0.9407 -0.1828
vn -0.1539 -0.9622 -0.2246
vn -0.2376 -0.9665 -0.0968
vn 0.3330 -0.8355 -0.4372
vn 0.5972 -0.8015 0.0308
vn -0.2660 -0.9195 0.2894
vn 0.0936 -0.9803 -0.1738
vn 0.0349 -0.9124 -0.4078
vn -0.3355 -0.9419 0.0173
vn 0.4964 -0.8535 -0.1584
vn 0.9684 0.1181 -0.2196
vn -0.5869 -0.4387 -0.6805
vn 0.2455 -0.9690 -0.0265
vn -0.5690 -0.6437 -0.5117
vn -0.7002 0.2292 -0.6761
vn -0.9503 0.1953 0.2425
vn 0.2298 0.9362 0.2661
vn 0.5535 -0.0270 0.8324
vn 0.5018 -0.0710 0.8621
vn -0.7706 -0.1855 0.6098
vn 0.9799 0.0397 0.1954
vn 0.4599 0.8057 0.3732
vn -0.4690 0.4854 -0.7379
vn -0.6269 0.7070 0.3272
vn -0.8784 -0.1542 -0.4524
vn 0.6046 0.0397 -0.7955
vn -0.4385 -0.6686 -0.6006
vn 0.1190 -0.3792 -0.9176
vn 0.1190 -0.3793 -0.9176
vn 0.1188 -0.3800 -0.9173
vn 0.2846 0.9223 -0.2615
vn -0.5714 0.8179 -0.0674
vn 0.8523 -0.0864 -0.5159
vn -0.9539 -0.1534 -0.2580
vn -0.4069 -0.3702 0.8351
vn 0.7718 -0.2434 0.5875
vn -0.5937 0.6901 0.4139
vn -0.4138 -0.9070 0.0787
vn 0.8827 -0.4507 -0.1334
vn -0.4397 -0.8966 -0.0519
vn 0.0785 -0.1240 0.9892
vn 0.3803 -0.0872 0.9207
vn -0.5596 0.8041 0.2008
vn 0.4188 0.9059 0.0630
vn -0.2946 0.9542 -0.0526
vn 0.3250 0.1609 -0.9319
vn 0.7316 0.2275 -0.6426
vn 0.8453 -0.1654 -0.5080
vn -0.3327 -0.9287 0.1640
vn 0.5309 -0.7938 0.2967
vn 0.2594 -0.9118 -0.3183
vn -0.1127 -0.9893 -0.0924
vn -0.2864 -0.9110 -0.2967
vn 0.3881 -0.8902 -0.2386
vn -0.3265 -0.9142 0.2403
vn 0.5556 -0.8223 0.1233
vn 0.0480 -0.8663 -0.4972
vn -0.0863 -0.9547 -0.2847
vn 0.0026 -0.9875 -0.1578
vn -0.2379 -0.4433 -0.8642
vn 0.2406 0.8350 0.4949
vn -0.0169 -0.9993 -0.0341
vn 0.9112 -0.2469 -0.3299
vn 0.2732 0.3480 -0.8968
vn 0.8906 0.4199 -0.1749
vn 0.0457 0.8180 0.5733
vn 0.2367 -0.6704 0.7033
vn -0.9915 0.1149 -0.0603
vn -0.1245 -0.1097 0.9861
vn -0.1938 -0.0316 0.9805
vn 0.5412 -0.0525 0.8393
vn -0.4283 0.6974 0.5746
vn -0.3891 0.7148 -0.5811
vn 0.3471 0.8496 -0.3971
vn 0.1191 -0.3785 -0.9179
vn -0.9639 -0.2564 -0.0717
vn -0.2561 -0.6926 0.6743
vn 0.5311 0.8278 0.1806
vn -0.4072 -0.5086 -0.7586
vn 0.1503 -0.4406 -0.8850
vn -0.7267 -0.6474 0.2298
vn 0.5659 -0.8054 -0.1765
vn -0.3160 -0.9471 -0.0560
vn 0.4696 -0.8513 -0.2341
vn 0.5682 -0.7737 -0.2804
vn 0.4088 0.9126 0.0087
vn 0.0103 0.9792 -0.2028
vn -0.5498 0.7863 0.2819
s 1
f 1/1/1 2/2/1 3/3/1
f 4/4/2 5/5/2 6/6/2
f 2/2/3 7/7/3 3/3/3
f 8/8/4 4/4/4 6/6/4
f 2/2/5 1/1/5 7/7/5
f 5/5/6 4/4/6 8/8/6
f 5/5/7 8/8/7 9/9/7
f 3/3/8 10/10/8 1/1/8
f 11/11/9 12/12/9 13/13/9
f 14/14/10 15/15/10 16/16/10
f 17/17/11 15/15/11 18/18/11
f 19/19/12 14/14/12 20/20/12
f 21/21/13 17/17/13 18/18/13
f 22/22/14 23/23/14 21/21/14
f 24/24/15 20/20/15 25/25/15
f 25/25/16 11/11/16 26/26/16
f 16/16/17 11/11/17 25/25/17
f 26/26/18 27/27/18 28/28/18
f 27/27/19 29/29/19 30/30/19
f 31/31/20 32/32/20 33/33/20
f 31/31/21 32/32/21 13/13/21
f 32/32/22 26/26/22 11/11/22
f 13/13/23 32/32/23 11/11/23
f 19/19/24 34/34/24 35/35/24
f 24/24/25 34/34/25 19/19/25
f 36/36/26 30/30/26 12/12/26
f 37/37/27 38/38/27 39/39/27
f 12/12/28 38/38/28 36/36/28
f 24/24/29 40/40/29 41/41/29
f 39/39/30 22/22/30 42/42/30
f 43/43/31 38/38/31 37/37/31
f 44/44/32 45/45/32 46/46/32
f 43/47/33 45/45/33 41/41/33
f 44/44/34 34/34/34 45/45/34
f 47/48/35 46/49/35 42/42/35
f 34/50/36 44/44/36 15/51/36
f 47/48/37 44/52/38 46/49/39
f 15/51/40 35/53/40 34/50/40
f 18/54/41 15/55/41 47/48/41
f 22/22/42 47/48/42 42/42/42
f 41/41/43 45/45/43 34/34/43
f 24/24/44 36/56/44 40/40/44
f 12/12/45 22/22/45 39/39/45
f 41/41/46 48/57/46 43/47/46
f 41/58/47 49/59/47 50/60/47
f 42/61/48 51/62/48 39/63/48
f 50/60/49 52/64/49 53/65/49
f 40/66/50 48/67/50 52/64/50
f 37/68/51 39/63/51 54/69/51
f 55/70/52 42/71/52 56/72/52
f 52/64/53 41/73/53 53/65/53
f 54/69/54 42/71/54 37/68/54
f 1/1/55 10/10/55 7/7/55
f 6/6/56 5/5/56 9/9/56
f 30/30/57 29/29/57 12/12/57
f 26/26/58 24/24/58 25/25/58
f 11/11/59 22/22/59 12/12/59
f 14/14/60 35/35/60 15/15/60
f 17/17/61 57/74/61 15/15/61
f 19/19/62 35/35/62 14/14/62
f 21/21/63 23/23/63 17/17/63
f 24/24/64 19/19/64 20/20/64
f 22/22/65 11/11/65 23/23/65
f 16/16/66 15/15/66 11/11/66
f 11/11/67 15/15/67 57/74/67
f 26/26/68 29/29/68 27/27/68
f 31/31/69 26/26/69 32/32/69
f 13/13/70 26/26/70 31/31/70
f 29/29/71 26/26/71 13/13/71
f 29/29/72 13/13/72 12/12/72
f 21/21/73 18/18/73 47/75/73
f 22/22/74 21/21/74 47/48/74
f 36/36/75 28/76/75 30/30/75
f 28/28/76 27/27/76 30/30/76
f 26/26/77 28/28/77 36/56/77
f 48/57/78 40/40/78 38/77/78
f 38/77/79 40/40/79 36/56/79
f 12/12/80 39/39/80 38/38/80
f 43/47/81 48/57/81 38/77/81
f 46/46/82 45/45/82 43/47/82
f 42/42/83 46/49/83 43/43/83
f 47/48/37 15/55/84 44/52/38
f 24/24/85 41/41/85 34/34/85
f 24/24/86 26/26/86 36/56/86
f 42/42/87 43/43/87 37/37/87
f 40/66/88 52/64/88 49/59/88
f 51/62/89 54/69/89 39/63/89
f 41/58/90 40/66/90 49/59/90
f 42/61/91 55/78/91 51/62/91
f 52/64/92 50/60/92 49/59/92
f 51/62/93 55/78/93 54/69/93
f 55/78/94 56/72/94 54/69/94
f 50/79/95 53/65/95 41/73/95
f 52/64/96 48/67/96 41/73/96
f 54/69/97 56/72/97 42/71/97
