# Blender v2.91.0 OBJ File: ''
# www.blender.org
v 0.240326 -0.197085 -0.663481
v 0.257783 -0.202636 -0.602146
v 0.198076 -0.129376 -0.624826
v 0.384952 -0.203910 -0.554938
v 0.438294 -0.199070 -0.589991
v 0.446275 -0.131864 -0.532690
v 0.298690 -0.160597 -0.592012
v 0.348089 -0.161092 -0.573674
v 0.436873 -0.128956 -0.596230
v 0.246708 -0.127050 -0.666823
v 0.384717 -0.196974 -0.547836
v 0.341483 -0.106642 -0.442033
v 0.321046 -0.202714 -0.508391
v 0.268945 -0.198456 -0.667213
v 0.342806 -0.181841 -0.635716
v 0.289379 -0.189556 -0.634071
v 0.419022 -0.199960 -0.611501
v 0.431918 -0.192891 -0.700399
v 0.153658 -0.155040 -0.710534
v 0.199232 -0.174688 -0.645949
v 0.535396 -0.158866 -0.568825
v 0.499212 -0.124797 -0.490289
v 0.458383 -0.177286 -0.549747
v 0.130430 -0.121101 -0.627187
v 0.252527 -0.197614 -0.598591
v 0.258218 -0.191526 -0.518299
v 0.233811 -0.181695 -0.342098
v 0.132354 -0.127233 -0.348354
v 0.311172 -0.195357 -0.468490
v 0.315990 -0.131982 -0.280871
v 0.292590 -0.202783 -0.501007
v 0.296718 -0.188647 -0.511747
v 0.291901 -0.190976 -0.498832
v 0.177421 -0.086001 -0.707534
v 0.317302 -0.191743 -0.742947
v 0.228704 -0.077098 -0.452139
v 0.454383 0.101975 -0.467758
v 0.287440 0.174246 -0.476954
v 0.462371 0.026782 -0.456939
v 0.139252 0.030020 -0.576887
v 0.129749 0.071701 -0.694433
v 0.559863 0.069569 -0.556528
v 0.350970 0.234432 -0.646469
v 0.311690 -0.040890 -0.800864
v 0.199063 0.100579 -0.765548
v 0.493887 0.058894 -0.747464
v 0.516651 -0.089401 -0.581605
v 0.153688 0.104989 -0.579382
v 0.114102 0.080841 -0.619583
v 0.086745 0.101841 -0.738696
v 0.510177 0.076871 -0.472552
v 0.029792 0.121980 -0.651406
v 0.048634 0.124487 -0.736366
v 0.595541 0.116309 -0.441390
v 0.608991 0.096606 -0.544828
v 0.636743 0.118592 -0.518049
v 0.382074 -0.190485 -0.599660
vt 0.892756 0.614534
vt 0.857930 0.621256
vt 0.872791 0.530002
vt 0.856790 0.789371
vt 0.891284 0.797632
vt 0.867586 0.881194
vt 0.820148 0.678020
vt 0.821565 0.730986
vt 0.959331 0.805748
vt 0.961096 0.609446
vt 0.450203 0.268934
vt 0.404365 0.111912
vt 0.499235 0.192754
vt 0.607494 0.325744
vt 0.522987 0.394183
vt 0.578937 0.310216
vt 0.433489 0.328791
vt 0.426877 0.396927
vt 0.697918 0.313719
vt 0.644292 0.286364
vt 0.340533 0.320184
vt 0.329606 0.253619
vt 0.394714 0.289933
vt 0.706158 0.249587
vt 0.590336 0.268218
vt 0.551957 0.177326
vt 0.519406 0.075820
vt 0.554214 0.057520
vt 0.498332 0.166146
vt 0.484035 0.057798
vt 0.519132 0.185382
vt 0.519841 0.200843
vt 0.517577 0.190607
vt 0.761461 0.316752
vt 0.616854 0.392674
vt 0.391712 0.020395
vt 0.188695 0.140323
vt 0.148899 0.029325
vt 0.244590 0.163315
vt 0.786307 0.164535
vt 0.830182 0.209381
vt 0.183903 0.216232
vt 0.033476 0.160709
vt 0.887453 0.343481
vt 0.874212 0.241824
vt 0.999856 0.254640
vt 0.981242 0.170124
vt 0.258699 0.325158
vt 0.092202 0.302027
vt 0.774934 0.313884
vt 0.828202 0.453947
vt 0.087074 0.412341
vt 0.763104 0.431376
vt 0.279233 0.458048
vt 0.215430 0.477965
vt 0.646382 0.069241
vt 0.844162 0.143417
vt 0.402311 0.849094
vt 0.438040 0.735610
vt 0.534672 0.861466
vt 0.353108 0.847951
vt 0.320191 0.733036
vt 0.363070 0.646683
vt 0.545024 0.737699
vt 0.590960 0.787400
vt 0.397196 0.648466
vt 0.487205 0.611647
vt 0.274087 0.608281
vt 0.212927 0.732262
vt 0.044268 0.710074
vt 0.084537 0.551771
vt 0.165465 0.780706
vt 0.649822 0.581235
vt 0.461852 0.312096
vt 0.273196 0.326526
vt 0.470636 0.000144
vt 0.883305 0.043383
vt 0.219754 0.856746
vt 0.716198 0.720783
vn -0.7890 -0.5901 0.1712
vn 0.4757 -0.6027 0.6407
vn -0.2939 0.0559 0.9542
vn -0.3990 0.0570 0.9152
vn 0.7223 -0.6394 -0.2635
vn -0.3866 -0.6283 -0.6751
vn -0.2142 -0.0909 -0.9726
vn -0.6541 0.0235 -0.7561
vn 0.4701 -0.5671 0.6763
vn 0.1460 -0.9743 0.1716
vn -0.1979 -0.9744 -0.1062
vn -0.3357 -0.9407 -0.0493
vn 0.3411 -0.9397 -0.0252
vn 0.3163 -0.8084 0.4964
vn -0.5552 -0.7966 0.2392
vn -0.0249 -0.9967 0.0773
vn 0.0649 -0.9856 -0.1565
vn -0.4721 -0.8814 -0.0162
vn 0.3237 -0.8989 0.2953
vn 0.9375 -0.0094 0.3480
vn -0.2081 -0.5525 -0.8071
vn 0.0241 -0.9597 0.2802
vn -0.3238 -0.7094 -0.6260
vn -0.1713 0.1016 -0.9800
vn -0.8726 0.3165 -0.3721
vn 0.2332 0.9543 0.1869
vn 0.0075 0.1432 0.9897
vn -0.0596 0.1119 0.9919
vn -0.9955 0.0280 0.0904
vn 0.7106 0.0180 0.7034
vn 0.3398 0.8389 0.4252
vn 0.1027 0.3171 -0.9428
vn -0.5500 0.8089 -0.2076
vn -0.5130 -0.2000 -0.8347
vn 0.9288 -0.2036 -0.3096
vn -0.1740 -0.7650 -0.6201
vn 0.5109 -0.6044 -0.6113
vn 0.5105 -0.6050 -0.6110
vn 0.5562 0.8050 -0.2066
vn -0.2724 0.8133 -0.5142
vn 0.9589 -0.2729 0.0774
vn -0.6784 -0.1452 -0.7202
vn -0.8526 -0.1195 0.5087
vn 0.2745 -0.1425 0.9510
vn -0.5721 0.8119 -0.1159
vn -0.5623 -0.8267 -0.0166
vn 0.7083 -0.5310 0.4652
vn -0.5122 -0.8476 -0.1386
vn -0.4862 0.1224 0.8652
vn -0.1940 0.1195 0.9737
vn -0.4081 0.8662 -0.2883
vn 0.4908 0.8609 0.1343
vn -0.0254 0.9290 -0.3693
vn 0.7952 -0.1010 -0.5978
vn 0.9893 0.0071 -0.1461
vn 0.9334 -0.3467 0.0931
vn -0.5453 -0.8321 0.1017
vn 0.1218 -0.7297 0.6728
vn 0.2021 -0.9785 0.0423
vn -0.2397 -0.9704 0.0284
vn -0.2585 -0.9337 -0.2478
vn 0.2699 -0.9467 0.1756
vn -0.5778 -0.7994 0.1645
vn 0.2287 -0.8024 0.5513
vn 0.1322 -0.9644 -0.2291
vn -0.1089 -0.9870 -0.1180
vn -0.1097 -0.9932 0.0402
vn 0.1760 -0.6276 -0.7584
vn 0.1003 0.9132 0.3951
vn -0.1938 -0.9722 0.1313
vn 0.8766 -0.3854 0.2880
vn 0.7710 0.0921 -0.6302
vn 0.9094 0.2987 0.2894
vn -0.1052 0.9302 0.3517
vn -0.3122 -0.4879 0.8152
vn -0.7614 0.1660 -0.6267
vn -0.6489 0.1498 0.7460
vn -0.6874 0.2287 0.6893
vn -0.0114 0.1212 0.9926
vn -0.5200 0.8475 0.1060
vn 0.1306 0.5722 -0.8097
vn 0.6654 0.6964 -0.2689
vn 0.5114 -0.6037 -0.6116
vn -0.8062 -0.1974 -0.5577
vn -0.7068 -0.4818 0.5179
vn 0.5052 0.8070 0.3058
vn -0.0324 -0.6523 -0.7573
vn 0.5072 -0.6577 -0.5570
vn -0.8488 -0.5162 -0.1144
vn 0.4001 -0.8619 0.3117
vn -0.4181 -0.9062 -0.0637
vn 0.3424 -0.9138 0.2186
vn 0.4635 -0.8574 0.2236
vn 0.5128 0.8544 0.0836
vn 0.3105 0.8939 -0.3232
vn -0.4467 0.8687 -0.2142
s 1
f 1/1/1 2/2/1 3/3/1
f 4/4/2 5/5/2 6/6/2
f 2/2/3 7/7/3 3/3/3
f 8/8/4 4/4/4 6/6/4
f 2/2/5 1/1/5 7/7/5
f 5/5/6 4/4/6 8/8/6
f 5/5/7 8/8/7 9/9/7
f 3/3/8 10/10/8 1/1/8
f 11/11/9 12/12/9 13/13/9
f 14/14/10 15/15/10 16/16/10
f 17/17/11 15/15/11 18/18/11
f 19/19/12 14/14/12 20/20/12
f 21/21/13 17/17/13 18/18/13
f 22/22/14 23/23/14 21/21/14
f 24/24/15 20/20/15 25/25/15
f 25/25/16 11/11/16 26/26/16
f 16/16/17 11/11/17 25/25/17
f 26/26/18 27/27/18 28/28/18
f 27/27/19 29/29/19 30/30/19
f 31/31/20 32/32/20 33/33/20
f 31/31/21 32/32/21 13/13/21
f 32/32/22 26/26/22 11/11/22
f 13/13/23 32/32/23 11/11/23
f 19/19/24 34/34/24 35/35/24
f 24/24/25 34/34/25 19/19/25
f 36/36/26 30/30/26 12/12/26
f 37/37/27 38/38/27 39/39/27
f 12/12/28 38/38/28 36/36/28
f 24/24/29 40/40/29 41/41/29
f 39/39/30 22/22/30 42/42/30
f 43/43/31 38/38/31 37/37/31
f 44/44/32 45/45/32 46/46/32
f 43/47/33 45/45/33 41/41/33
f 44/44/34 34/34/34 45/45/34
f 47/48/35 46/49/35 42/42/35
f 34/50/36 44/44/36 15/51/36
f 47/48/37 44/52/37 46/49/38
f 15/51/39 35/53/39 34/50/39
f 18/54/40 15/55/40 47/48/40
f 22/22/41 47/48/41 42/42/41
f 41/41/42 45/45/42 34/34/42
f 24/24/43 36/56/43 40/40/43
f 12/12/44 22/22/44 39/39/44
f 41/41/45 48/57/45 43/47/45
f 41/58/46 49/59/46 50/60/46
f 42/61/47 51/62/47 39/63/47
f 50/60/48 52/64/48 53/65/48
f 40/66/49 48/67/49 52/64/49
f 37/68/50 39/63/50 54/69/50
f 55/70/51 42/71/51 56/72/51
f 52/64/52 41/73/52 53/65/52
f 54/69/53 42/71/53 37/68/53
f 1/1/54 10/10/54 7/7/54
f 6/6/55 5/5/55 9/9/55
f 30/30/56 29/29/56 12/12/56
f 26/26/57 24/24/57 25/25/57
f 11/11/58 22/22/58 12/12/58
f 14/14/59 35/35/59 15/15/59
f 17/17/60 57/74/60 15/15/60
f 19/19/61 35/35/61 14/14/61
f 21/21/62 23/23/62 17/17/62
f 24/24/63 19/19/63 20/20/63
f 22/22/64 11/11/64 23/23/64
f 16/16/65 15/15/65 11/11/65
f 11/11/66 15/15/66 57/74/66
f 26/26/67 29/29/67 27/27/67
f 31/31/68 26/26/68 32/32/68
f 13/13/69 26/26/69 31/31/69
f 29/29/70 26/26/70 13/13/70
f 29/29/71 13/13/71 12/12/71
f 21/21/72 18/18/72 47/75/72
f 22/22/73 21/21/73 47/48/73
f 36/36/74 28/76/74 30/30/74
f 28/28/75 27/27/75 30/30/75
f 26/26/76 28/28/76 36/56/76
f 48/57/77 40/40/77 38/77/77
f 38/77/78 40/40/78 36/56/78
f 12/12/79 39/39/79 38/38/79
f 43/47/80 48/57/80 38/77/80
f 46/46/81 45/45/81 43/47/81
f 42/42/82 46/49/82 43/43/82
f 47/48/37 15/55/83 44/52/37
f 24/24/84 41/41/84 34/34/84
f 24/24/85 26/26/85 36/56/85
f 42/42/86 43/43/86 37/37/86
f 40/66/87 52/64/87 49/59/87
f 51/62/88 54/69/88 39/63/88
f 41/58/89 40/66/89 49/59/89
f 42/61/90 55/78/90 51/62/90
f 52/64/91 50/60/91 49/59/91
f 51/62/92 55/78/92 54/69/92
f 55/78/93 56/72/93 54/69/93
f 50/79/94 53/65/94 41/73/94
f 52/64/95 48/67/95 41/73/95
f 54/69/96 56/72/96 42/71/96
