# Blender v2.91.0 OBJ File: ''
# www.blender.org
v -0.521853 -0.208752 -0.391627
v -0.468809 -0.209549 -0.355805
v -0.536762 -0.143910 -0.333001
v -0.341610 -0.195627 -0.400849
v -0.323839 -0.187078 -0.461748
v -0.288506 -0.116737 -0.420914
v -0.435733 -0.163134 -0.372977
v -0.386322 -0.157725 -0.390475
v -0.336530 -0.117852 -0.463653
v -0.526739 -0.138672 -0.396296
v -0.338012 -0.188418 -0.395045
v -0.313290 -0.097974 -0.283546
v -0.360756 -0.198699 -0.324194
v -0.502269 -0.207384 -0.412827
v -0.427677 -0.181857 -0.435364
v -0.466515 -0.194874 -0.400167
v -0.352157 -0.190954 -0.465985
v -0.399815 -0.186886 -0.542348
v -0.622514 -0.178038 -0.371201
v -0.544429 -0.189831 -0.351253
v -0.240688 -0.136245 -0.506414
v -0.221869 -0.102301 -0.421966
v -0.285219 -0.161459 -0.443045
v -0.590735 -0.142675 -0.291342
v -0.471093 -0.204923 -0.349572
v -0.416188 -0.194441 -0.291332
v -0.323442 -0.178697 -0.140041
v -0.410697 -0.135191 -0.078458
v -0.343625 -0.190477 -0.287010
v -0.227140 -0.118009 -0.144112
v -0.377730 -0.201304 -0.300332
v -0.382973 -0.187354 -0.310825
v -0.378152 -0.189538 -0.297886
v -0.609995 -0.106878 -0.382135
v -0.514458 -0.199434 -0.501750
v -0.408922 -0.080563 -0.218388
v -0.266334 0.119561 -0.369588
v -0.407322 0.173967 -0.267902
v -0.245162 0.046175 -0.368504
v -0.568356 0.010799 -0.254054
v -0.655131 0.045609 -0.337139
v -0.239040 0.093819 -0.506149
v -0.473595 0.232092 -0.437085
v -0.572098 -0.052887 -0.538411
v -0.650809 0.077935 -0.435281
v -0.409994 0.067343 -0.611015
v -0.270688 -0.069739 -0.502291
v -0.567098 0.086641 -0.263081
v -0.620296 0.056693 -0.269355
v -0.719432 0.069063 -0.342815
v -0.224130 0.100056 -0.409646
v -0.709344 0.087476 -0.238757
v -0.749460 0.087804 -0.316023
v -0.143466 0.149415 -0.439148
v -0.197067 0.126239 -0.527796
v -0.161217 0.152191 -0.524333
v -0.373798 -0.184726 -0.433000
vt 0.892756 0.614534
vt 0.857930 0.621256
vt 0.872791 0.530002
vt 0.856790 0.789371
vt 0.891284 0.797632
vt 0.867586 0.881194
vt 0.820148 0.678020
vt 0.821565 0.730986
vt 0.959331 0.805748
vt 0.961096 0.609446
vt 0.450203 0.268934
vt 0.404365 0.111912
vt 0.499235 0.192754
vt 0.607494 0.325744
vt 0.522987 0.394183
vt 0.578937 0.310216
vt 0.433489 0.328791
vt 0.426877 0.396927
vt 0.697918 0.313719
vt 0.644292 0.286364
vt 0.340533 0.320184
vt 0.329606 0.253619
vt 0.394714 0.289933
vt 0.706158 0.249587
vt 0.590336 0.268218
vt 0.551957 0.177326
vt 0.519406 0.075820
vt 0.554214 0.057520
vt 0.498332 0.166146
vt 0.484035 0.057798
vt 0.519132 0.185382
vt 0.519841 0.200843
vt 0.517577 0.190607
vt 0.761461 0.316752
vt 0.616854 0.392674
vt 0.391712 0.020395
vt 0.188695 0.140323
vt 0.148899 0.029325
vt 0.244590 0.163315
vt 0.786307 0.164535
vt 0.830182 0.209381
vt 0.183903 0.216232
vt 0.033476 0.160709
vt 0.887453 0.343481
vt 0.874212 0.241824
vt 0.999856 0.254640
vt 0.981242 0.170124
vt 0.258699 0.325158
vt 0.092202 0.302027
vt 0.774934 0.313884
vt 0.828202 0.453947
vt 0.087074 0.412341
vt 0.763104 0.431376
vt 0.279233 0.458048
vt 0.215430 0.477965
vt 0.646382 0.069241
vt 0.844162 0.143417
vt 0.402311 0.849094
vt 0.438040 0.735610
vt 0.534672 0.861466
vt 0.353108 0.847951
vt 0.320191 0.733036
vt 0.363070 0.646683
vt 0.545024 0.737699
vt 0.590960 0.787400
vt 0.397196 0.648466
vt 0.487205 0.611647
vt 0.274087 0.608281
vt 0.212927 0.732262
vt 0.044268 0.710074
vt 0.084537 0.551771
vt 0.165465 0.780706
vt 0.649822 0.581235
vt 0.461852 0.312096
vt 0.273196 0.326526
vt 0.470636 0.000144
vt 0.883305 0.043383
vt 0.219754 0.856746
vt 0.716198 0.720783
vn -0.4281 -0.6583 0.6192
vn 0.8369 -0.5198 0.1713
vn 0.3787 0.0715 0.9227
vn 0.2736 0.0600 0.9600
vn 0.4521 -0.5746 -0.6822
vn -0.6571 -0.6960 -0.2895
vn -0.7739 -0.1587 -0.6131
vn -0.9835 -0.0794 -0.1623
vn 0.8515 -0.4833 0.2032
vn 0.3268 -0.9450 0.0110
vn -0.1126 -0.9935 0.0174
vn -0.1850 -0.9712 0.1502
vn 0.3461 -0.9003 -0.2640
vn 0.6458 -0.7473 0.1565
vn -0.1840 -0.8365 0.5162
vn 0.1388 -0.9892 0.0472
vn 0.0568 -0.9802 -0.1895
vn -0.2744 -0.9246 0.2644
vn 0.5330 -0.8461 -0.0054
vn 0.9377 0.1027 -0.3320
vn -0.6135 -0.6088 -0.5029
vn 0.3015 -0.9377 0.1728
vn -0.5691 -0.7679 -0.2941
vn -0.7669 0.0365 -0.6407
vn -0.9370 0.2080 0.2808
vn 0.1933 0.9809 0.0215
vn 0.6216 0.1905 0.7598
vn 0.5753 0.1527 0.8036
vn -0.7042 -0.0690 0.7066
vn 0.9885 0.1238 0.0868
vn 0.4390 0.8885 0.1333
vn -0.5578 0.2803 -0.7812
vn -0.6397 0.7379 0.2149
vn -0.9019 -0.2910 -0.3192
vn 0.5327 -0.1228 -0.8374
vn -0.4451 -0.8076 -0.3869
vn 0.0652 -0.5780 -0.8135
vn 0.0652 -0.5780 -0.8134
vn 0.0651 -0.5787 -0.8130
vn 0.2046 0.8465 -0.4916
vn -0.6242 0.7557 -0.1981
vn 0.8100 -0.1700 -0.5612
vn -0.9608 -0.2478 -0.1239
vn -0.3124 -0.1810 0.9326
vn 0.8315 -0.0681 0.5513
vn -0.5984 0.7431 0.2996
vn -0.3493 -0.8794 0.3233
vn 0.8945 -0.4333 -0.1102
vn -0.3866 -0.9010 0.1969
vn 0.1681 0.1138 0.9792
vn 0.4603 0.1457 0.8757
vn -0.5892 0.8054 0.0638
vn 0.3661 0.9117 -0.1862
vn -0.3560 0.9028 -0.2413
vn 0.2357 -0.0482 -0.9706
vn 0.6601 0.1005 -0.7444
vn 0.8086 -0.2451 -0.5348
vn -0.2602 -0.8773 0.4032
vn 0.6015 -0.6804 0.4186
vn 0.2874 -0.9497 -0.1243
vn -0.0591 -0.9873 0.1477
vn -0.2536 -0.9659 -0.0516
vn 0.4208 -0.9049 -0.0644
vn -0.2485 -0.8452 0.4732
vn 0.6134 -0.7476 0.2547
vn 0.0595 -0.9558 -0.2878
vn -0.0510 -0.9975 -0.0490
vn 0.0501 -0.9961 0.0730
vn -0.2815 -0.6421 -0.7131
vn 0.2292 0.9365 0.2653
vn 0.0418 -0.9794 0.1973
vn 0.8939 -0.2800 -0.3499
vn 0.1756 0.1396 -0.9745
vn 0.8454 0.4031 -0.3504
vn 0.0430 0.9305 0.3638
vn 0.3352 -0.4774 0.8122
vn -0.9983 0.0574 0.0098
vn -0.0349 0.1187 0.9923
vn -0.1091 0.1905 0.9756
vn 0.6114 0.1669 0.7735
vn -0.4210 0.7944 0.4378
vn -0.4793 0.5429 -0.6895
vn 0.2599 0.7467 -0.6123
vn 0.0653 -0.5773 -0.8139
vn -0.9489 -0.3048 0.0811
vn -0.1560 -0.5257 0.8362
vn 0.4924 0.8679 -0.0652
vn -0.4369 -0.6878 -0.5797
vn 0.1028 -0.6287 -0.7708
vn -0.6639 -0.6046 0.4401
vn 0.5976 -0.8008 -0.0406
vn -0.2608 -0.9460 0.1927
vn 0.4999 -0.8627 -0.0767
vn 0.5893 -0.7942 -0.1487
vn 0.3513 0.9051 -0.2394
vn -0.0668 0.9043 -0.4216
vn -0.5717 0.8075 0.1454
s 1
f 1/1/1 2/2/1 3/3/1
f 4/4/2 5/5/2 6/6/2
f 2/2/3 7/7/3 3/3/3
f 8/8/4 4/4/4 6/6/4
f 2/2/5 1/1/5 7/7/5
f 5/5/6 4/4/6 8/8/6
f 5/5/7 8/8/7 9/9/7
f 3/3/8 10/10/8 1/1/8
f 11/11/9 12/12/9 13/13/9
f 14/14/10 15/15/10 16/16/10
f 17/17/11 15/15/11 18/18/11
f 19/19/12 14/14/12 20/20/12
f 21/21/13 17/17/13 18/18/13
f 22/22/14 23/23/14 21/21/14
f 24/24/15 20/20/15 25/25/15
f 25/25/16 11/11/16 26/26/16
f 16/16/17 11/11/17 25/25/17
f 26/26/18 27/27/18 28/28/18
f 27/27/19 29/29/19 30/30/19
f 31/31/20 32/32/20 33/33/20
f 31/31/21 32/32/21 13/13/21
f 32/32/22 26/26/22 11/11/22
f 13/13/23 32/32/23 11/11/23
f 19/19/24 34/34/24 35/35/24
f 24/24/25 34/34/25 19/19/25
f 36/36/26 30/30/26 12/12/26
f 37/37/27 38/38/27 39/39/27
f 12/12/28 38/38/28 36/36/28
f 24/24/29 40/40/29 41/41/29
f 39/39/30 22/22/30 42/42/30
f 43/43/31 38/38/31 37/37/31
f 44/44/32 45/45/32 46/46/32
f 43/47/33 45/45/33 41/41/33
f 44/44/34 34/34/34 45/45/34
f 47/48/35 46/49/35 42/42/35
f 34/50/36 44/44/36 15/51/36
f 47/48/37 44/52/38 46/49/39
f 15/51/40 35/53/40 34/50/40
f 18/54/41 15/55/41 47/48/41
f 22/22/42 47/48/42 42/42/42
f 41/41/43 45/45/43 34/34/43
f 24/24/44 36/56/44 40/40/44
f 12/12/45 22/22/45 39/39/45
f 41/41/46 48/57/46 43/47/46
f 41/58/47 49/59/47 50/60/47
f 42/61/48 51/62/48 39/63/48
f 50/60/49 52/64/49 53/65/49
f 40/66/50 48/67/50 52/64/50
f 37/68/51 39/63/51 54/69/51
f 55/70/52 42/71/52 56/72/52
f 52/64/53 41/73/53 53/65/53
f 54/69/54 42/71/54 37/68/54
f 1/1/55 10/10/55 7/7/55
f 6/6/56 5/5/56 9/9/56
f 30/30/57 29/29/57 12/12/57
f 26/26/58 24/24/58 25/25/58
f 11/11/59 22/22/59 12/12/59
f 14/14/60 35/35/60 15/15/60
f 17/17/61 57/74/61 15/15/61
f 19/19/62 35/35/62 14/14/62
f 21/21/63 23/23/63 17/17/63
f 24/24/64 19/19/64 20/20/64
f 22/22/65 11/11/65 23/23/65
f 16/16/66 15/15/66 11/11/66
f 11/11/67 15/15/67 57/74/67
f 26/26/68 29/29/68 27/27/68
f 31/31/69 26/26/69 32/32/69
f 13/13/70 26/26/70 31/31/70
f 29/29/71 26/26/71 13/13/71
f 29/29/72 13/13/72 12/12/72
f 21/21/73 18/18/73 47/75/73
f 22/22/74 21/21/74 47/48/74
f 36/36/75 28/76/75 30/30/75
f 28/28/76 27/27/76 30/30/76
f 26/26/77 28/28/77 36/56/77
f 48/57/78 40/40/78 38/77/78
f 38/77/79 40/40/79 36/56/79
f 12/12/80 39/39/80 38/38/80
f 43/47/81 48/57/81 38/77/81
f 46/46/82 45/45/82 43/47/82
f 42/42/83 46/49/83 43/43/83
f 47/48/37 15/55/84 44/52/38
f 24/24/85 41/41/85 34/34/85
f 24/24/86 26/26/86 36/56/86
f 42/42/87 43/43/87 37/37/87
f 40/66/88 52/64/88 49/59/88
f 51/62/89 54/69/89 39/63/89
f 41/58/90 40/66/90 49/59/90
f 42/61/91 55/78/91 51/62/91
f 52/64/92 50/60/92 49/59/92
f 51/62/93 55/78/93 54/69/93
f 55/78/94 56/72/94 54/69/94
f 50/79/95 53/65/95 41/73/95
f 52/64/96 48/67/96 41/73/96
f 54/69/97 56/72/97 42/71/97
