# This file uses meters as units for non-parametric coordinates.

v -34.628334 29.417774 -0.000001
v -34.628326 70.582230 -0.000001
v 34.628326 29.417778 -0.000001
v 34.628326 70.582230 -0.000001
v -49.999992 99.999985 0.000006
v 50.000000 100.000000 0.000006
v -49.999992 -0.000008 0.000006
v 49.999996 0.000000 0.000006
v -50.000000 0.000000 12.087098
v 49.999992 -0.000015 12.087097
v -49.999992 99.999985 12.087095
v 50.000000 100.000000 12.087098
v -42.430801 21.735991 12.087098
v 42.430801 21.735991 12.087098
v -42.430801 78.264008 12.087098
v 42.430801 78.264008 12.087098
v -34.628326 29.417774 2.620846
v -34.628326 70.582230 2.620846
v 34.628326 29.417774 2.620846
v 34.628326 70.582230 2.620846
v 50.000000 99.999992 0.000006
v 49.999996 0.000000 0.000006
v -49.999989 -0.000008 0.000006
v -49.999992 99.999985 0.000006
vt 0.000000 0.000000
vt 1.000000 0.000000
vt 0.846283 0.294178
vt 0.153717 0.294178
vt 0.153717 0.705822
vt 0.000000 1.000000
vt 1.000000 1.000000
vt 0.846283 0.705822
vt 0.075692 0.217360
vt 0.153717 0.294178
vt 0.153717 0.705822
vt 0.075692 0.782640
vt 0.924308 0.217360
vt 0.846283 0.294178
vt 0.924308 0.782640
vt 0.846283 0.705822
vt 0.075692 0.217360
vt 0.000000 0.000000
vt 1.000000 0.000000
vt 0.924308 0.217360
vt 0.075692 0.782640
vt 0.000000 1.000000
vt 1.000000 1.000000
vt 0.924308 0.782640
vt -0.000000 0.000000
vt 0.100000 -0.000000
vt 0.100000 1.000000
vt -0.000000 1.000000
vt -0.000000 -0.000000
vt 0.100000 -0.000000
vt 0.100000 1.000000
vt -0.000000 1.000000
vt -0.000000 0.000000
vt 0.100000 0.000000
vt 0.100000 1.000000
vt -0.000000 1.000000
vt -0.000000 -0.000000
vt 0.100000 -0.000000
vt 0.100000 1.000000
vt 0.000000 1.000000
vt 0.153864 0.705837
vt 0.153864 0.294393
vt 0.182252 0.294393
vt 0.182252 0.705837
vt 0.154149 0.294253
vt 0.846149 0.294253
vt 0.846149 0.322641
vt 0.154149 0.322641
vt 0.846238 0.294202
vt 0.846238 0.705672
vt 0.817850 0.705672
vt 0.817850 0.294202
vt 0.846150 0.705778
vt 0.153830 0.705778
vt 0.153830 0.677390
vt 0.846150 0.677390
vn -0.000000 -0.000000 -1.000000
vn -0.000000 0.000000 -1.000000
vn -0.000000 -0.000000 -1.000000
vn -0.000000 0.000000 -1.000000
vn 0.000000 0.000000 -1.000000
vn 0.000000 0.000000 -1.000000
vn 0.000000 -0.000000 -1.000000
vn 0.000000 -0.000000 -1.000000
vn 0.081225 0.102023 0.991461
vn 0.406308 0.516313 0.753880
vn 0.067797 -0.126881 0.989598
vn 0.297009 -0.606836 0.737249
vn -0.297009 0.606836 0.737249
vn -0.067797 0.126881 0.989598
vn -0.406308 -0.516313 0.753879
vn -0.081225 -0.102023 0.991461
vn 0.000000 -0.000000 1.000000
vn -0.000000 -0.000000 1.000000
vn -0.000000 0.000000 1.000000
vn -0.000000 0.000000 1.000000
vn 1.000000 -0.000000 0.000000
vn 1.000000 -0.000000 0.000000
vn 1.000000 -0.000000 0.000000
vn 1.000000 0.000000 0.000000
vn -0.000000 -1.000000 0.000001
vn -0.000000 -1.000000 0.000000
vn 0.000000 -1.000000 -0.000001
vn 0.000000 -1.000000 -0.000001
vn -1.000000 0.000000 0.000000
vn -1.000000 0.000000 -0.000000
vn -1.000000 0.000000 -0.000001
vn -1.000000 0.000000 -0.000001
vn -0.000000 1.000000 0.000000
vn -0.000000 1.000000 0.000000
vn -0.000000 1.000000 0.000000
vn -0.000000 1.000000 0.000000
vn 1.000000 0.000000 0.000000
vn 1.000000 -0.000000 -0.000003
vn 1.000000 -0.000000 -0.000000
vn 1.000000 -0.000000 -0.000003
vn 0.000000 1.000000 0.000000
vn -0.000000 1.000000 0.000001
vn -0.000000 1.000000 0.000000
vn -0.000000 1.000000 0.000001
vn -1.000000 0.000000 0.000000
vn -1.000000 0.000000 0.000000
vn -1.000000 0.000000 0.000000
vn -1.000000 0.000000 0.000000
vn 0.000000 -1.000000 0.000000
vn 0.000000 -1.000000 0.000000
vn 0.000000 -1.000000 0.000000
vn 0.000000 -1.000000 0.000000
s 1
f 7/6/1 5/1/2 1/5/3
f 1/5/3 5/1/2 2/4/4
f 5/1/2 6/2/5 2/4/4
f 6/2/5 4/3/6 2/4/4
f 6/2/5 8/7/7 4/3/6
f 4/3/6 8/7/7 3/8/8
f 8/7/7 7/6/1 3/8/8
f 7/6/1 1/5/3 3/8/8
s 2
f 13/9/9 17/10/10 15/12/11
f 15/12/11 17/10/10 18/11/12
f 17/10/10 13/9/9 19/14/13
f 19/14/13 13/9/9 14/13/14
f 19/14/13 14/13/14 20/16/15
f 20/16/15 14/13/14 16/15/16
f 15/12/11 18/11/12 16/15/16
f 16/15/16 18/11/12 20/16/15
f 13/17/9 9/18/17 14/20/14
f 14/20/14 9/18/17 10/19/18
f 9/18/17 13/17/9 11/22/19
f 11/22/19 13/17/9 15/21/11
f 14/20/14 10/19/18 16/24/16
f 16/24/16 10/19/18 12/23/20
f 11/22/19 15/21/11 12/23/20
f 12/23/20 15/21/11 16/24/16
s 3
f 10/25/21 22/26/22 12/28/23
f 12/28/23 22/26/22 21/27/24
s 4
f 9/29/25 23/30/26 10/32/27
f 10/32/27 23/30/26 22/31/28
s 5
f 11/33/29 24/34/30 9/36/31
f 9/36/31 24/34/30 23/35/32
s 6
f 12/37/33 21/38/34 11/40/35
f 11/40/35 21/38/34 24/39/36
s 7
f 18/41/37 17/42/38 2/44/39
f 2/44/39 17/42/38 1/43/40
s 8
f 17/45/41 19/46/42 1/48/43
f 1/48/43 19/46/42 3/47/44
s 9
f 19/49/45 20/50/46 3/52/47
f 3/52/47 20/50/46 4/51/48
s 10
f 20/53/49 18/54/50 4/56/51
f 4/56/51 18/54/50 2/55/52
