# This file uses meters as units for non-parametric coordinates.

v -34.628326 29.417774 0.746613
v 34.628326 29.417774 0.746613
v -34.628326 70.582230 0.746613
v 34.628326 70.582230 0.746613
v -34.628326 29.417774 0.050736
v 34.628326 29.417774 0.050736
v -34.628326 70.582230 0.050736
v 34.628326 70.582230 0.050736
vt 0.000000 -0.000000
vt 1.750000 0.000000
vt 1.750000 1.000000
vt 0.000000 1.000000
vt 0.000000 -0.000000
vt 0.000000 1.000000
vt 1.750000 1.000000
vt 1.750000 0.000000
vn 0.000000 0.000000 1.000000
vn 0.000000 0.000000 1.000000
vn 0.000000 0.000000 1.000000
vn 0.000000 0.000000 1.000000
vn 0.000000 0.000000 -1.000000
vn 0.000000 0.000000 -1.000000
vn 0.000000 0.000000 -1.000000
vn 0.000000 0.000000 -1.000000
s 1
f 1/1/1 2/2/2 3/4/3
f 3/4/3 2/2/2 4/3/4
s 2
f 5/5/5 7/6/6 6/8/7
f 6/8/7 7/6/6 8/7/8
